<svg width="24" height="24" viewBox="0 0 24 24" fill="none" xmlns="http://www.w3.org/2000/svg">
<path d="M9.5 13.25H2C1.66848 13.25 1.35054 13.3817 1.11612 13.6161C0.881696 13.8505 0.75 14.1685 0.75 14.5V22C0.75 22.3315 0.881696 22.6495 1.11612 22.8839C1.35054 23.1183 1.66848 23.25 2 23.25H9.5C9.83152 23.25 10.1495 23.1183 10.3839 22.8839C10.6183 22.6495 10.75 22.3315 10.75 22V14.5C10.75 14.1685 10.6183 13.8505 10.3839 13.6161C10.1495 13.3817 9.83152 13.25 9.5 13.25ZM8.25 20.75H3.25V15.75H8.25V20.75ZM22 0.75H14.5C14.1685 0.75 13.8505 0.881696 13.6161 1.11612C13.3817 1.35054 13.25 1.66848 13.25 2V9.5C13.25 9.83152 13.3817 10.1495 13.6161 10.3839C13.8505 10.6183 14.1685 10.75 14.5 10.75H22C22.3315 10.75 22.6495 10.6183 22.8839 10.3839C23.1183 10.1495 23.25 9.83152 23.25 9.5V2C23.25 1.66848 23.1183 1.35054 22.8839 1.11612C22.6495 0.881696 22.3315 0.75 22 0.75ZM20.75 8.25H15.75V3.25H20.75V8.25ZM22 17H19.5V14.5C19.5 14.1685 19.3683 13.8505 19.1339 13.6161C18.8995 13.3817 18.5815 13.25 18.25 13.25C17.9185 13.25 17.6005 13.3817 17.3661 13.6161C17.1317 13.8505 17 14.1685 17 14.5V17H14.5C14.1685 17 13.8505 17.1317 13.6161 17.3661C13.3817 17.6005 13.25 17.9185 13.25 18.25C13.25 18.5815 13.3817 18.8995 13.6161 19.1339C13.8505 19.3683 14.1685 19.5 14.5 19.5H17V22C17 22.3315 17.1317 22.6495 17.3661 22.8839C17.6005 23.1183 17.9185 23.25 18.25 23.25C18.5815 23.25 18.8995 23.1183 19.1339 22.8839C19.3683 22.6495 19.5 22.3315 19.5 22V19.5H22C22.3315 19.5 22.6495 19.3683 22.8839 19.1339C23.1183 18.8995 23.25 18.5815 23.25 18.25C23.25 17.9185 23.1183 17.6005 22.8839 17.3661C22.6495 17.1317 22.3315 17 22 17ZM9.5 0.75H2C1.66848 0.75 1.35054 0.881696 1.11612 1.11612C0.881696 1.35054 0.75 1.66848 0.75 2V9.5C0.75 9.83152 0.881696 10.1495 1.11612 10.3839C1.35054 10.6183 1.66848 10.75 2 10.75H9.5C9.83152 10.75 10.1495 10.6183 10.3839 10.3839C10.6183 10.1495 10.75 9.83152 10.75 9.5V2C10.75 1.66848 10.6183 1.35054 10.3839 1.11612C10.1495 0.881696 9.83152 0.75 9.5 0.75ZM8.25 8.25H3.25V3.25H8.25V8.25Z" fill="#445D54"/>
</svg>
