<svg width="31" height="22" viewBox="0 0 31 22" fill="none" xmlns="http://www.w3.org/2000/svg">
<path d="M3.89349 17.5452C2.39523 17.5452 1.34054 17.258 0.729415 16.6836C0.321996 16.3115 0.118286 15.7013 0.118286 14.8527V8.4593H1.89253V14.0792C1.89253 14.8951 2.03053 15.3945 2.30652 15.5772C2.47737 15.6882 3.00636 15.7567 3.89349 15.7828V17.5452Z" fill="#003028"/>
<path d="M14.2235 14.2359C14.2235 15.2476 13.9705 16.0766 13.4645 16.7228C12.9126 17.4342 12.1404 17.79 11.1482 17.79C10.3925 17.79 9.72549 17.568 9.14722 17.1242C8.57552 17.3722 5.2176 17.5126 3.78506 17.5452V15.7828C4.79046 15.7828 7.73439 15.6849 7.90525 15.4891C7.95782 15.4238 7.99396 14.9735 8.01367 14.138C8.07282 11.7164 9.13408 10.5056 11.1975 10.5056C12.1831 10.5056 12.952 10.8972 13.504 11.6805C13.9837 12.3658 14.2235 13.2176 14.2235 14.2359ZM12.676 14.138C12.676 12.8652 12.1667 12.2288 11.1482 12.2288C10.1099 12.2288 9.59078 12.888 9.59078 14.2065C9.59078 15.4271 10.1099 16.0374 11.1482 16.0374C12.1667 16.0374 12.676 15.4043 12.676 14.138Z" fill="#003028"/>
<path d="M23.903 17.5452H22.73C22.73 18.8376 22.2931 19.9015 21.4191 20.737C20.5517 21.579 19.4641 22 18.1564 22H15.8696L15.6232 20.2377H17.8607C18.7019 20.2377 19.4017 19.9962 19.9603 19.5131C20.5188 19.0301 20.8145 18.3741 20.8474 17.5452C19.382 17.5452 18.3043 17.3461 17.6143 16.948C16.714 16.4258 16.2639 15.4891 16.2639 14.138C16.2639 12.6628 16.622 11.6283 17.3383 11.0343C17.7523 10.6818 18.4521 10.5056 19.4378 10.5056C20.8507 10.5056 21.7969 11.0865 22.2766 12.2484C22.5526 12.9272 22.7038 14.1053 22.73 15.7828H23.903V17.5452ZM20.9065 15.7828V14.1086C20.9065 13.6191 20.7882 13.1981 20.5517 12.8456C20.2822 12.4474 19.911 12.2484 19.4378 12.2484C18.8727 12.2484 18.4916 12.4376 18.2944 12.8162C18.1564 13.0904 18.0874 13.544 18.0874 14.1771C18.0874 14.9212 18.3996 15.3977 19.0238 15.6066C19.359 15.7241 19.9865 15.7828 20.9065 15.7828Z" fill="#003028"/>
<path d="M31 9.16424C31 9.46449 30.8883 9.71579 30.6649 9.91813C30.448 10.1205 30.1852 10.2216 29.8763 10.2216C29.5346 10.2216 29.2455 10.1335 29.0089 9.9573C28.7526 9.75495 28.6245 9.4906 28.6245 9.16424C28.6245 8.51804 29.0056 8.19495 29.7679 8.19495C30.5893 8.19495 31 8.51804 31 9.16424ZM27.5994 9.16424C27.5994 9.46449 27.4877 9.71579 27.2642 9.91813C27.0474 10.1205 26.7845 10.2216 26.4757 10.2216C26.134 10.2216 25.8448 10.1335 25.6083 9.9573C25.352 9.75495 25.2239 9.4906 25.2239 9.16424C25.2239 8.51804 25.605 8.19495 26.3673 8.19495C27.1887 8.19495 27.5994 8.51804 27.5994 9.16424ZM29.9847 14.6765C29.9847 15.4402 29.758 16.0994 29.3046 16.6542C28.8183 17.2482 28.2006 17.5452 27.4515 17.5452H23.6566V15.7828H26.8995C27.3924 15.7828 27.7341 15.6849 27.9246 15.4891C28.1152 15.2868 28.2105 14.9343 28.2105 14.4317V12.0134H29.9847V14.6765Z" fill="#003028"/>
<path d="M4.25697 0.694688C4.25697 0.913387 4.17669 1.09992 4.01613 1.2543C3.85991 1.40867 3.66898 1.48586 3.44333 1.48586C2.86184 1.48586 2.5711 1.22214 2.5711 0.694688C2.5711 0.231563 2.84883 0 3.40427 0C3.97274 0 4.25697 0.231563 4.25697 0.694688ZM7.57011 4.40613C7.57011 5.31094 7.30975 6.05065 6.78902 6.62527C6.24659 7.22133 5.52408 7.51936 4.62148 7.51936H2.81845C2.01566 7.51936 1.34088 7.21704 0.794113 6.6124C0.264704 6.02921 0 5.33667 0 4.53477V2.11623H1.15211V4.66342C1.15211 5.15227 1.34522 5.5618 1.73143 5.89199C2.10028 6.20503 2.53639 6.36155 3.03976 6.36155H4.54988C5.05759 6.36155 5.49153 6.20288 5.8517 5.88555C6.21621 5.56823 6.39847 5.16085 6.39847 4.66342V0.958413H7.57011V4.40613Z" fill="#003028"/>
</svg>
