<svg width="42" height="23" viewBox="0 0 42 23" fill="none" xmlns="http://www.w3.org/2000/svg">
<path d="M6.57996 7.99979H2.57996C2.04952 7.99979 1.54082 8.21051 1.16574 8.58558C0.79067 8.96065 0.579956 9.46936 0.579956 9.99979C0.579956 10.5302 0.79067 11.0389 1.16574 11.414C1.54082 11.7891 2.04952 11.9998 2.57996 11.9998H6.57996C7.11039 11.9998 7.6191 11.7891 7.99417 11.414C8.36924 11.0389 8.57996 10.5302 8.57996 9.99979C8.57996 9.46936 8.36924 8.96065 7.99417 8.58558C7.6191 8.21051 7.11039 7.99979 6.57996 7.99979ZM40.14 2.31979V2.19979C39.5669 1.49937 38.8429 0.937642 38.022 0.556657C37.2012 0.175671 36.3048 -0.0147006 35.4 -0.000206886H19.54C18.0704 -0.0134067 16.647 0.513224 15.54 1.47979C14.506 2.39086 13.8261 3.6372 13.62 4.99979L11.86 14.9998C11.7086 15.8634 11.7484 16.7496 11.9764 17.5962C12.2045 18.4428 12.6153 19.2291 13.18 19.8998C13.7417 20.5683 14.4425 21.1061 15.2336 21.4757C16.0246 21.8453 16.8868 22.0378 17.76 22.0398H33.64C35.0664 22.0614 36.4539 21.5739 37.5535 20.6649C38.6531 19.7559 39.3928 18.4849 39.64 17.0798L41.4 7.07979C41.5386 6.2424 41.4979 5.38512 41.2807 4.56459C41.0635 3.74405 40.6747 2.97894 40.14 2.31979ZM34.66 3.99979L27.86 9.51979C27.4579 9.84382 26.9461 9.99979 26.4317 9.95506C25.9172 9.91033 25.44 9.66836 25.1 9.27979L20.44 3.99979H34.66ZM35.62 16.3398C35.539 16.8094 35.293 17.2346 34.9264 17.539C34.5597 17.8433 34.0964 18.0067 33.62 17.9998H17.76C17.4695 17.9974 17.1831 17.9317 16.9206 17.8073C16.6581 17.683 16.4258 17.503 16.24 17.2798C16.0536 17.0578 15.9177 16.7979 15.8418 16.5182C15.7658 16.2385 15.7515 15.9456 15.8 15.6598L17.4 6.59979L22.1 11.9198C23.123 13.0825 24.556 13.8047 26.0992 13.9351C27.6424 14.0656 29.1763 13.5943 30.38 12.6198L37.26 6.99979L35.62 16.3398ZM8.57996 -0.000206886H2.57996C2.04952 -0.000206886 1.54082 0.210507 1.16574 0.58558C0.79067 0.960653 0.579956 1.46936 0.579956 1.99979C0.579956 2.53023 0.79067 3.03893 1.16574 3.41401C1.54082 3.78908 2.04952 3.99979 2.57996 3.99979H8.57996C9.11039 3.99979 9.6191 3.78908 9.99417 3.41401C10.3692 3.03893 10.58 2.53023 10.58 1.99979C10.58 1.46936 10.3692 0.960653 9.99417 0.58558C9.6191 0.210507 9.11039 -0.000206886 8.57996 -0.000206886Z" fill="#F5F8F6"/>
</svg>
