<svg width="45" height="45" viewBox="0 0 45 45" fill="none" xmlns="http://www.w3.org/2000/svg">
<path d="M22.982 0.999913C20.1155 0.895486 17.2575 1.37309 14.5807 2.40388C11.9039 3.43467 9.46379 4.99727 7.40767 6.99731C5.35154 8.99736 3.72209 11.3934 2.61769 14.0407C1.5133 16.6879 0.95687 19.5316 0.982013 22.3999C0.944031 25.3557 1.53291 28.2861 2.70983 30.9977C3.88676 33.7094 5.625 36.1409 7.81001 38.1319L7.91401 41.5119C7.94311 42.4468 8.33493 43.3337 9.0065 43.9847C9.67808 44.6357 10.5767 44.9998 11.512 44.9999C12.0119 45.0005 12.5064 44.8969 12.964 44.6959L16.806 42.9999C18.8212 43.5337 20.8973 43.8026 22.982 43.7999C25.8486 43.9043 28.7067 43.4267 31.3836 42.396C34.0605 41.3652 36.5008 39.8026 38.557 37.8026C40.6133 35.8026 42.243 33.4066 43.3476 30.7593C44.4522 28.112 45.0089 25.2683 44.984 22.3999C45.0089 19.5317 44.4523 16.6882 43.3478 14.041C42.2433 11.3938 40.6138 8.99795 38.5577 6.99796C36.5017 4.99796 34.0616 3.43536 31.385 2.40446C28.7083 1.37357 25.8485 0.895772 22.982 0.999913ZM22.984 39.7999C21.204 39.8021 19.4317 39.5667 17.714 39.0999C16.9191 38.886 16.0749 38.9509 15.322 39.2839L11.894 40.7959L11.804 37.8099C11.7853 37.3257 11.669 36.8503 11.4621 36.4121C11.2552 35.9739 10.962 35.582 10.6 35.2599C8.80179 33.64 7.37021 31.6547 6.40101 29.4369C5.43181 27.2192 4.94735 24.82 4.98001 22.3999C4.9674 20.0603 5.42893 17.7424 6.33673 15.5861C7.24454 13.4298 8.57982 11.4798 10.262 9.85367C11.9441 8.22758 13.9383 6.95916 16.1242 6.12495C18.31 5.29073 20.6422 4.90802 22.98 4.99991C25.3146 4.92075 27.6413 5.31222 29.8215 6.15102C32.0017 6.98981 33.9908 8.25877 35.6703 9.88232C37.3499 11.5059 38.6855 13.4508 39.5977 15.6013C40.5099 17.7518 40.98 20.0639 40.98 22.3999C40.98 24.7359 40.5099 27.048 39.5977 29.1985C38.6855 31.349 37.3499 33.2939 35.6703 34.9175C33.9908 36.5411 32.0017 37.81 29.8215 38.6488C27.6413 39.4876 25.3146 39.8791 22.98 39.7999M30.45 16.1699L25.824 21.6799L19.13 17.5679C18.7213 17.3173 18.2362 17.2219 17.763 17.2989C17.2898 17.376 16.86 17.6205 16.552 17.9879L10.452 25.2599C10.2693 25.4588 10.1287 25.6927 10.0389 25.9475C9.94901 26.2022 9.91167 26.4725 9.92911 26.742C9.94656 27.0116 10.0184 27.2748 10.1404 27.5158C10.2623 27.7568 10.4318 27.9707 10.6387 28.1444C10.8455 28.3181 11.0854 28.4481 11.3439 28.5266C11.6023 28.6051 11.874 28.6304 12.1425 28.601C12.411 28.5716 12.6708 28.4881 12.9062 28.3556C13.1416 28.2231 13.3476 28.0443 13.512 27.8299L18.51 21.8799L25.204 25.9919C25.6127 26.2425 26.0979 26.338 26.571 26.2609C27.0442 26.1838 27.474 25.9393 27.782 25.5719L33.514 18.7419C33.6903 18.5419 33.8248 18.3086 33.9096 18.0558C33.9944 17.803 34.0278 17.5358 34.0079 17.27C33.9879 17.0041 33.915 16.7449 33.7934 16.5076C33.6718 16.2703 33.504 16.0597 33.2998 15.8882C33.0957 15.7167 32.8593 15.5878 32.6046 15.509C32.3498 15.4302 32.0819 15.4031 31.8166 15.4294C31.5513 15.4556 31.2939 15.5346 31.0595 15.6618C30.8252 15.789 30.6166 15.9617 30.45 16.1699Z" fill="#EAFFF7"/>
</svg>
