<svg width="24" height="26" viewBox="0 0 24 26" fill="none" xmlns="http://www.w3.org/2000/svg">
<path d="M22 7.99989L14.5 1.42489C13.8125 0.809942 12.9224 0.469971 12 0.469971C11.0776 0.469971 10.1875 0.809942 9.5 1.42489L2 7.99989C1.60296 8.35498 1.28612 8.79058 1.07059 9.27769C0.855051 9.7648 0.745762 10.2922 0.749996 10.8249V21.7499C0.749996 22.7444 1.14508 23.6983 1.84835 24.4015C2.55161 25.1048 3.50543 25.4999 4.5 25.4999H19.5C20.4946 25.4999 21.4484 25.1048 22.1516 24.4015C22.8549 23.6983 23.25 22.7444 23.25 21.7499V10.8124C23.2525 10.2818 23.1423 9.75681 22.9268 9.27199C22.7114 8.78716 22.3955 8.35358 22 7.99989ZM14.5 22.9999H9.5V16.7499C9.5 16.4184 9.63169 16.1004 9.86611 15.866C10.1005 15.6316 10.4185 15.4999 10.75 15.4999H13.25C13.5815 15.4999 13.8995 15.6316 14.1339 15.866C14.3683 16.1004 14.5 16.4184 14.5 16.7499V22.9999ZM20.75 21.7499C20.75 22.0814 20.6183 22.3993 20.3839 22.6338C20.1495 22.8682 19.8315 22.9999 19.5 22.9999H17V16.7499C17 15.7553 16.6049 14.8015 15.9016 14.0982C15.1984 13.395 14.2446 12.9999 13.25 12.9999H10.75C9.75543 12.9999 8.80161 13.395 8.09835 14.0982C7.39508 14.8015 7 15.7553 7 16.7499V22.9999H4.5C4.16848 22.9999 3.85053 22.8682 3.61611 22.6338C3.38169 22.3993 3.25 22.0814 3.25 21.7499V10.8124C3.25022 10.6349 3.28824 10.4595 3.36152 10.2979C3.4348 10.1362 3.54166 9.99202 3.675 9.87489L11.175 3.31239C11.4031 3.11199 11.6964 3.00147 12 3.00147C12.3036 3.00147 12.5969 3.11199 12.825 3.31239L20.325 9.87489C20.4583 9.99202 20.5652 10.1362 20.6385 10.2979C20.7118 10.4595 20.7498 10.6349 20.75 10.8124V21.7499Z" fill="#00A47C"/>
</svg>
