<svg width="43" height="43" viewBox="0 0 43 43" fill="none" xmlns="http://www.w3.org/2000/svg">
<path d="M32 14.9982C30.2095 14.9963 28.4466 15.4396 26.87 16.2882C26.726 15.9089 26.4699 15.5824 26.1359 15.352C25.8019 15.1215 25.4058 14.9982 25 14.9982H17C16.4696 14.9982 15.9609 15.2089 15.5858 15.584C15.2107 15.9591 15 16.4678 15 16.9982V40.9982C15 41.5287 15.2107 42.0374 15.5858 42.4124C15.9609 42.7875 16.4696 42.9982 17 42.9982H25C25.5304 42.9982 26.0391 42.7875 26.4142 42.4124C26.7893 42.0374 27 41.5287 27 40.9982V29.9982C27 29.4678 27.2107 28.9591 27.5858 28.584C27.9609 28.2089 28.4696 27.9982 29 27.9982C29.5304 27.9982 30.0391 28.2089 30.4142 28.584C30.7893 28.9591 31 29.4678 31 29.9982V40.9982C31 41.5287 31.2107 42.0374 31.5858 42.4124C31.9609 42.7875 32.4696 42.9982 33 42.9982H41C41.5304 42.9982 42.0391 42.7875 42.4142 42.4124C42.7893 42.0374 43 41.5287 43 40.9982V25.9982C42.9963 23.082 41.8362 20.2862 39.7741 18.2242C37.712 16.1621 34.9162 15.0019 32 14.9982ZM39 38.9982H35V29.9982C35 28.4069 34.3679 26.8808 33.2426 25.7556C32.1174 24.6304 30.5913 23.9982 29 23.9982C27.4087 23.9982 25.8826 24.6304 24.7574 25.7556C23.6321 26.8808 23 28.4069 23 29.9982V38.9982H19V18.9982H23V20.4042C22.9998 20.8188 23.1284 21.2231 23.3681 21.5614C23.6077 21.8997 23.9466 22.1551 24.3377 22.2923C24.7289 22.4296 25.1531 22.4419 25.5515 22.3276C25.95 22.2133 26.3031 21.978 26.562 21.6542C27.4599 20.5144 28.6912 19.6835 30.0842 19.2773C31.4771 18.8712 32.9621 18.9101 34.3319 19.3887C35.7016 19.8673 36.8877 20.7617 37.7246 21.947C38.5615 23.1323 39.0074 24.5493 39 26.0002V38.9982ZM11 14.9982H3C2.46957 14.9982 1.96086 15.2089 1.58579 15.584C1.21072 15.9591 1 16.4678 1 16.9982V40.9982C1 41.5287 1.21072 42.0374 1.58579 42.4124C1.96086 42.7875 2.46957 42.9982 3 42.9982H11C11.5304 42.9982 12.0391 42.7875 12.4142 42.4124C12.7893 42.0374 13 41.5287 13 40.9982V16.9982C13 16.4678 12.7893 15.9591 12.4142 15.584C12.0391 15.2089 11.5304 14.9982 11 14.9982ZM9 38.9982H5V18.9982H9V38.9982ZM7.03 0.0842342C6.15419 0.0308729 5.27667 0.156325 4.45089 0.452951C3.62511 0.749577 2.86834 1.21117 2.22666 1.80963C1.58498 2.40808 1.07182 3.13088 0.718417 3.93401C0.365016 4.73713 0.178774 5.60378 0.171028 6.48119C0.163283 7.3586 0.334197 8.2284 0.673364 9.03764C1.01253 9.84688 1.51285 10.5786 2.14387 11.1883C2.77488 11.798 3.52339 12.2729 4.3438 12.584C5.16422 12.8952 6.03938 13.0361 6.916 12.9982H6.972C7.84832 13.0483 8.72565 12.9194 9.55054 12.6195C10.3754 12.3195 11.1306 11.8547 11.7701 11.2535C12.4095 10.6522 12.9199 9.92703 13.27 9.12215C13.6202 8.31727 13.8028 7.44953 13.8067 6.5718C13.8107 5.69407 13.6359 4.82472 13.293 4.01673C12.9501 3.20874 12.4463 2.47902 11.8122 1.87204C11.1782 1.26506 10.4272 0.793523 9.60503 0.48616C8.78287 0.178796 7.90673 0.042044 7.03 0.0842342ZM6.972 8.99823H6.916C6.57009 9.04047 6.21914 9.00823 5.88671 8.9037C5.55427 8.79917 5.24804 8.62475 4.98854 8.39216C4.72905 8.15956 4.52229 7.87416 4.38215 7.55509C4.24201 7.23603 4.17172 6.89069 4.176 6.54223C4.176 5.04823 5.296 4.08423 7.03 4.08423C7.37923 4.03827 7.73424 4.0676 8.07119 4.17024C8.40814 4.27288 8.71921 4.44645 8.98351 4.6793C9.2478 4.91214 9.45919 5.19886 9.60348 5.52019C9.74776 5.84152 9.82159 6.19 9.82 6.54223C9.82 8.03423 8.702 8.99823 6.972 8.99823Z" fill="#EAFFF7"/>
</svg>
