<svg width="14" height="13" viewBox="0 0 14 13" fill="none" xmlns="http://www.w3.org/2000/svg">
<path d="M10.9999 0C11.7072 0 12.3854 0.280951 12.8855 0.781048C13.3856 1.28115 13.6666 1.95942 13.6666 2.66667V8C13.6666 8.70724 13.3856 9.38552 12.8855 9.88562C12.3854 10.3857 11.7072 10.6667 10.9999 10.6667H9.27592L7.47125 12.4713C7.35646 12.5861 7.20372 12.6551 7.04171 12.6653C6.87969 12.6754 6.71952 12.6262 6.59125 12.5267L6.52859 12.4713L4.72325 10.6667H2.99992C2.31576 10.6667 1.65777 10.4037 1.16204 9.93219C0.666322 9.46066 0.370793 8.81664 0.336585 8.13333L0.333252 8V2.66667C0.333252 1.95942 0.614204 1.28115 1.1143 0.781048C1.6144 0.280951 2.29267 0 2.99992 0H10.9999ZM8.33325 6H4.33325C4.15644 6 3.98687 6.07024 3.86185 6.19526C3.73682 6.32029 3.66659 6.48986 3.66659 6.66667C3.66659 6.84348 3.73682 7.01305 3.86185 7.13807C3.98687 7.2631 4.15644 7.33333 4.33325 7.33333H8.33325C8.51006 7.33333 8.67963 7.2631 8.80466 7.13807C8.92968 7.01305 8.99992 6.84348 8.99992 6.66667C8.99992 6.48986 8.92968 6.32029 8.80466 6.19526C8.67963 6.07024 8.51006 6 8.33325 6ZM9.66659 3.33333H4.33325C4.15644 3.33333 3.98687 3.40357 3.86185 3.5286C3.73682 3.65362 3.66659 3.82319 3.66659 4C3.66659 4.17681 3.73682 4.34638 3.86185 4.4714C3.98687 4.59643 4.15644 4.66667 4.33325 4.66667H9.66659C9.8434 4.66667 10.013 4.59643 10.138 4.4714C10.263 4.34638 10.3333 4.17681 10.3333 4C10.3333 3.82319 10.263 3.65362 10.138 3.5286C10.013 3.40357 9.8434 3.33333 9.66659 3.33333Z" fill="#00C897"/>
</svg>
