<svg width="14" height="15" viewBox="0 0 14 15" fill="none" xmlns="http://www.w3.org/2000/svg">
<path d="M6.49629 13.2107H3.78705C3.29254 13.2107 2.81437 13.0337 2.43907 12.7117C2.06377 12.3897 1.81613 11.9439 1.74097 11.4552L0.874923 5.82968C0.844676 5.633 0.857319 5.4321 0.911984 5.24076C0.96665 5.04942 1.06205 4.87216 1.19163 4.72115C1.32122 4.57013 1.48193 4.44892 1.66274 4.36582C1.84356 4.28273 2.04021 4.23972 2.2392 4.23975H10.064C10.263 4.23972 10.4596 4.28273 10.6404 4.36582C10.8213 4.44892 10.982 4.57013 11.1116 4.72115C11.2411 4.87216 11.3365 5.04942 11.3912 5.24076C11.4459 5.4321 11.4585 5.633 11.4283 5.82968L11.2468 7.00833M8.91155 11.8306H13.052M10.9818 9.76036V13.9008" stroke="#003028" stroke-width="1.33333" stroke-linecap="round" stroke-linejoin="round"/>
<path d="M4.08105 6.30992V2.85954C4.08105 2.31048 4.29917 1.78391 4.68741 1.39566C5.07565 1.00742 5.60222 0.789307 6.15128 0.789307C6.70034 0.789307 7.22691 1.00742 7.61516 1.39566C8.0034 1.78391 8.22151 2.31048 8.22151 2.85954V6.30992" stroke="#003028" stroke-width="1.33333" stroke-linecap="round" stroke-linejoin="round"/>
</svg>
