<svg width="32" height="32" viewBox="0 0 32 32" fill="none" xmlns="http://www.w3.org/2000/svg">
<path d="M11.1466 20.44C10.8779 20.6657 10.709 20.9883 10.6765 21.3377C10.6441 21.6872 10.7507 22.0353 10.9733 22.3067C11.0852 22.4417 11.2227 22.5533 11.3778 22.6351C11.533 22.7169 11.7027 22.7673 11.8773 22.7834C12.052 22.7995 12.2281 22.781 12.3955 22.7289C12.563 22.6769 12.7186 22.5923 12.8533 22.48C13.7446 21.7614 14.855 21.3695 16 21.3695C17.1449 21.3695 18.2553 21.7614 19.1466 22.48C19.3865 22.6788 19.6884 22.7873 20 22.7867C20.2714 22.784 20.5356 22.6985 20.7571 22.5417C20.9787 22.3849 21.1471 22.1642 21.2399 21.9091C21.3326 21.654 21.3453 21.3766 21.2762 21.1141C21.2072 20.8516 21.0596 20.6164 20.8533 20.44C19.4775 19.3341 17.7652 18.7312 16 18.7312C14.2347 18.7312 12.5225 19.3341 11.1466 20.44ZM12.28 14.0533C12.5298 14.3017 12.8677 14.4411 13.22 14.4411C13.5722 14.4411 13.9101 14.3017 14.16 14.0533C14.4083 13.8035 14.5477 13.4656 14.5477 13.1133C14.5477 12.7611 14.4083 12.4232 14.16 12.1733C13.3969 11.4493 12.3852 11.0457 11.3333 11.0457C10.2814 11.0457 9.26967 11.4493 8.50663 12.1733C8.36706 12.2929 8.2537 12.44 8.17366 12.6054C8.09363 12.7708 8.04866 12.951 8.04157 13.1346C8.03447 13.3182 8.06542 13.5013 8.13245 13.6724C8.19948 13.8435 8.30116 13.9989 8.4311 14.1289C8.56104 14.2588 8.71643 14.3605 8.88753 14.4275C9.05863 14.4946 9.24174 14.5255 9.42537 14.5184C9.60899 14.5113 9.78917 14.4663 9.95459 14.3863C10.12 14.3063 10.2671 14.1929 10.3866 14.0533C10.5106 13.9284 10.6581 13.8292 10.8205 13.7615C10.983 13.6938 11.1573 13.6589 11.3333 13.6589C11.5093 13.6589 11.6836 13.6938 11.8461 13.7615C12.0085 13.8292 12.156 13.9284 12.28 14.0533ZM16 2.66667C13.3629 2.66667 10.785 3.44866 8.59236 4.91374C6.39971 6.37883 4.69074 8.46121 3.68157 10.8976C2.6724 13.3339 2.40836 16.0148 2.92283 18.6012C3.4373 21.1876 4.70717 23.5634 6.57188 25.4281C8.43658 27.2928 10.8123 28.5627 13.3988 29.0771C15.9852 29.5916 18.6661 29.3276 21.1024 28.3184C23.5388 27.3092 25.6211 25.6003 27.0862 23.4076C28.5513 21.215 29.3333 18.6371 29.3333 16C29.3333 14.249 28.9884 12.5152 28.3184 10.8976C27.6483 9.27988 26.6662 7.81003 25.4281 6.57191C24.1899 5.3338 22.7201 4.35167 21.1024 3.68161C19.4847 3.01155 17.7509 2.66667 16 2.66667ZM16 26.6667C13.8903 26.6667 11.828 26.0411 10.0739 24.869C8.31976 23.6969 6.95259 22.031 6.14525 20.082C5.33792 18.1329 5.12668 15.9882 5.53826 13.919C5.94983 11.8499 6.96573 9.94929 8.45749 8.45753C9.94925 6.96577 11.8499 5.94987 13.919 5.5383C15.9881 5.12672 18.1328 5.33796 20.0819 6.14529C22.031 6.95263 23.6969 8.3198 24.869 10.0739C26.041 11.828 26.6666 13.8903 26.6666 16C26.6666 18.829 25.5428 21.5421 23.5424 23.5425C21.5421 25.5429 18.8289 26.6667 16 26.6667ZM23.4933 12.1733C22.7303 11.4493 21.7185 11.0457 20.6666 11.0457C19.6148 11.0457 18.603 11.4493 17.84 12.1733C17.6215 12.4284 17.5074 12.7565 17.5204 13.0921C17.5333 13.4276 17.6724 13.746 17.9099 13.9834C18.1473 14.2209 18.4657 14.36 18.8012 14.373C19.1368 14.3859 19.4649 14.2718 19.72 14.0533C19.8439 13.9284 19.9914 13.8292 20.1539 13.7615C20.3163 13.6938 20.4906 13.6589 20.6666 13.6589C20.8426 13.6589 21.0169 13.6938 21.1794 13.7615C21.3419 13.8292 21.4893 13.9284 21.6133 14.0533C21.8631 14.3017 22.2011 14.4411 22.5533 14.4411C22.9055 14.4411 23.2435 14.3017 23.4933 14.0533C23.7416 13.8035 23.881 13.4656 23.881 13.1133C23.881 12.7611 23.7416 12.4232 23.4933 12.1733Z" fill="#BFD0C8"/>
</svg>
