<svg width="16" height="15" viewBox="0 0 16 15" fill="none" xmlns="http://www.w3.org/2000/svg">
<path d="M5.49542 4.89334L1.24209 5.51001L1.16675 5.52534C1.05271 5.55562 0.948751 5.61562 0.865483 5.69921C0.782214 5.78281 0.722624 5.887 0.692796 6.00116C0.662969 6.11532 0.663973 6.23535 0.695706 6.34899C0.72744 6.46263 0.788766 6.56582 0.873421 6.64801L3.95475 9.64734L3.22809 13.884L3.21942 13.9573C3.21244 14.0753 3.23693 14.193 3.29039 14.2983C3.34384 14.4037 3.42434 14.493 3.52365 14.557C3.62295 14.621 3.73748 14.6575 3.85552 14.6627C3.97356 14.668 4.09086 14.6417 4.19542 14.5867L7.99942 12.5867L11.7948 14.5867L11.8614 14.6173C11.9715 14.6607 12.0911 14.674 12.2079 14.6558C12.3248 14.6377 12.4347 14.5888 12.5265 14.5142C12.6182 14.4395 12.6885 14.3418 12.73 14.2311C12.7715 14.1204 12.7828 14.0006 12.7628 13.884L12.0354 9.64734L15.1181 6.64734L15.1701 6.59068C15.2444 6.49919 15.2931 6.38965 15.3112 6.27321C15.3294 6.15677 15.3164 6.03759 15.2735 5.92783C15.2306 5.81807 15.1594 5.72163 15.0671 5.64835C14.9748 5.57507 14.8647 5.52757 14.7481 5.51068L10.4948 4.89334L8.59342 1.04001C8.53841 0.928366 8.45323 0.834353 8.34755 0.768612C8.24186 0.702872 8.11989 0.66803 7.99542 0.66803C7.87096 0.66803 7.74898 0.702872 7.6433 0.768612C7.53761 0.834353 7.45244 0.928366 7.39742 1.04001L5.49542 4.89334Z" fill="#FF9B00"/>
</svg>
