<svg width="22" height="32" viewBox="0 0 22 32" fill="none" xmlns="http://www.w3.org/2000/svg">
<path d="M1.5 30.25V27.0833C1.5 25.4036 2.16726 23.7927 3.35499 22.605C4.54272 21.4173 6.15363 20.75 7.83333 20.75H14.1667C15.8464 20.75 17.4573 21.4173 18.645 22.605C19.8327 23.7927 20.5 25.4036 20.5 27.0833V30.25M4.66667 8.08333C4.66667 9.76304 5.33393 11.3739 6.52166 12.5617C7.70939 13.7494 9.3203 14.4167 11 14.4167C12.6797 14.4167 14.2906 13.7494 15.4783 12.5617C16.6661 11.3739 17.3333 9.76304 17.3333 8.08333C17.3333 6.40363 16.6661 4.79272 15.4783 3.60499C14.2906 2.41726 12.6797 1.75 11 1.75C9.3203 1.75 7.70939 2.41726 6.52166 3.60499C5.33393 4.79272 4.66667 6.40363 4.66667 8.08333Z" stroke="#394C46" stroke-width="2" stroke-linecap="round" stroke-linejoin="round"/>
</svg>
